{
  "accessors": [
    {
      "bufferView": 2,
      "componentType": 5126,
      "count": 23722,
      "max": [
        -7.0966291427612305,
        112.83584594726563,
        8.722034454345703
      ],
      "min": [
        -7.19427490234375,
        112.77105712890625,
        8.52553653717041
      ],
      "type": "VEC3"
    },
    {
      "bufferView": 2,
      "byteOffset": 284664,
      "componentType": 5126,
      "count": 23722,
      "max": [
        0.999986469745636,
        0.9999971985816956,
        0.9999890327453613
      ],
      "min": [
        -0.9999926090240479,
        -0.9999961853027344,
        -0.9998291730880737
      ],
      "type": "VEC3"
    },
    {
      "bufferView": 3,
      "componentType": 5126,
      "count": 23722,
      "max": [
        0.9995031356811523,
        0.9999895095825195,
        0.9999907612800598,
        -1.0
      ],
      "min": [
        -0.9996519684791565,
        -0.9999972581863403,
        -0.9999820590019226,
        -1.0
      ],
      "type": "VEC4"
    },
    {
      "bufferView": 1,
      "componentType": 5126,
      "count": 23722,
      "max": [
        0.9995110034942627,
        0.9877930283546448
      ],
      "min": [
        0.0004879999905824661,
        0.0004879999905824661
      ],
      "type": "VEC2"
    },
    {
      "bufferView": 0,
      "componentType": 5125,
      "count": 90000,
      "type": "SCALAR"
    }
  ],
  "asset": {
    "extras": {
      "author": "grafi (https://sketchfab.com/zdenkoroman)",
      "license": "CC-BY-4.0 (http://creativecommons.org/licenses/by/4.0/)",
      "source": "https://sketchfab.com/3d-models/mcqueen-toy-car-3d-scan-215a722160ed4c08b9e362ad2682c733",
      "title": "McQueen Toy Car 3D Scan"
    },
    "generator": "Sketchfab-12.68.0",
    "version": "2.0"
  },
  "bufferViews": [
    {
      "buffer": 0,
      "byteLength": 360000,
      "name": "floatBufferViews",
      "target": 34963
    },
    {
      "buffer": 0,
      "byteLength": 189776,
      "byteOffset": 360000,
      "byteStride": 8,
      "name": "floatBufferViews",
      "target": 34962
    },
    {
      "buffer": 0,
      "byteLength": 569328,
      "byteOffset": 549776,
      "byteStride": 12,
      "name": "floatBufferViews",
      "target": 34962
    },
    {
      "buffer": 0,
      "byteLength": 379552,
      "byteOffset": 1119104,
      "byteStride": 16,
      "name": "floatBufferViews",
      "target": 34962
    }
  ],
  "buffers": [
    {
      "byteLength": 1498656,
      "uri": "scene.bin"
    }
  ],
  "images": [
    {
      "uri": "textures/material_0_baseColor.png"
    },
    {
      "uri": "textures/material_0_normal.png"
    }
  ],
  "materials": [
    {
      "doubleSided": true,
      "name": "material_0",
      "normalTexture": {
        "index": 1
      },
      "pbrMetallicRoughness": {
        "baseColorTexture": {
          "index": 0
        },
        "metallicFactor": 0.0,
        "roughnessFactor": 0.19683689024390244
      }
    }
  ],
  "meshes": [
    {
      "name": "Object_0",
      "primitives": [
        {
          "attributes": {
            "NORMAL": 1,
            "POSITION": 0,
            "TANGENT": 2,
            "TEXCOORD_0": 3
          },
          "indices": 4,
          "material": 0,
          "mode": 4
        }
      ]
    }
  ],
  "nodes": [
    {
      "children": [
        1
      ],
      "matrix": [
        2.45394039290332,
        -0.043981899375200584,
        -9.765943470618895e-18,
        0.0,
        -0.043981899375200584,
        -2.45394039290332,
        7.393783874716362e-16,
        0.0,
        -1.2772775011888037e-17,
        -7.391578289431666e-16,
        -2.4543344974517822,
        0.0,
        2.0202996730804443,
        121.28101348876956,
        -104.1795959472656,
        1.0
      ],
      "name": "Sketchfab_model"
    },
    {
      "children": [
        2
      ],
      "name": "export_low_poly.obj.cleaner.materialmerger.gles"
    },
    {
      "mesh": 0,
      "name": "Object_2"
    }
  ],
  "samplers": [
    {
      "magFilter": 9729,
      "minFilter": 9987,
      "wrapS": 10497,
      "wrapT": 10497
    }
  ],
  "scene": 0,
  "scenes": [
    {
      "name": "Sketchfab_Scene",
      "nodes": [
        0
      ]
    }
  ],
  "textures": [
    {
      "sampler": 0,
      "source": 0
    },
    {
      "sampler": 0,
      "source": 1
    }
  ]
}
